<svg width="373" height="208" viewBox="0 0 373 208" fill="none" xmlns="http://www.w3.org/2000/svg">
<path d="M35.4258 9.9172C35.4258 4.44008 39.8659 0 45.343 0H327.668C333.145 0 337.585 4.44008 337.585 9.9172V204.209H35.4258V9.9172Z" fill="#1A202C"/>
<path d="M37.7686 9.12559C37.7686 5.14223 40.9977 1.91309 44.9811 1.91309H328.137C332.12 1.91309 335.349 5.14224 335.349 9.12559V196.079H37.7686V9.12559Z" fill="black"/>
<rect width="281.068" height="172.43" transform="translate(45.9658 14.1519)" fill="#0F0F10"/>
<path d="M0 202.081H373V204.054C373 204.054 356.013 208 336.736 208C317.46 208 55.5404 207.803 36.2639 207.803C16.9874 207.803 0 204.054 0 204.054V202.081Z" fill="url(#paint0_linear_52_2713)"/>
<path d="M0 202.313C0 202.064 0.201822 201.862 0.450782 201.862H372.549C372.798 201.862 373 202.064 373 202.313V204.054H0V202.313Z" fill="url(#paint1_linear_52_2713)"/>
<path d="M158.79 201.862H214.451V201.862C214.451 203.073 213.469 204.054 212.259 204.054H160.982C159.772 204.054 158.79 203.073 158.79 201.862V201.862Z" fill="url(#paint2_linear_52_2713)"/>
<defs>
<linearGradient id="paint0_linear_52_2713" x1="186.5" y1="202.081" x2="186.5" y2="208" gradientUnits="userSpaceOnUse">
<stop stop-color="#80868A"/>
<stop offset="1" stop-color="#2A2C2F"/>
</linearGradient>
<linearGradient id="paint1_linear_52_2713" x1="7.83498e-07" y1="202.958" x2="373" y2="202.958" gradientUnits="userSpaceOnUse">
<stop stop-color="#2A2C2F"/>
<stop offset="0.208333" stop-color="#80868A"/>
<stop offset="0.770833" stop-color="#80868A"/>
<stop offset="1" stop-color="#2A2C2F"/>
</linearGradient>
<linearGradient id="paint2_linear_52_2713" x1="158.79" y1="202.958" x2="214.451" y2="202.958" gradientUnits="userSpaceOnUse">
<stop stop-color="#2A2C2F"/>
<stop offset="0.229167" stop-color="#80868A"/>
<stop offset="0.802083" stop-color="#80868A"/>
<stop offset="1" stop-color="#2A2C2F"/>
</linearGradient>
</defs>
</svg>
